 <svg xmlns:dc="http://purl.org/dc/elements/1.1/" xmlns:cc="http://creativecommons.org/ns#" xmlns:rdf="http://www.w3.org/1999/02/22-rdf-syntax-ns#"
        xmlns:svg="http://www.w3.org/2000/svg" xmlns="http://www.w3.org/2000/svg"
        width="230mm" height="210mm" viewBox="58 62 95 25" version="1.1"
        id="svg8">
        <defs id="defs2" />
        <g id="layer1">
            <path id="node2" transform-origin="30 100" transform="translate(70, -28) skewX(-15) rotate(15)" d="m 77.472147,88.758223 c 0.09478,-2.103443 -1.099485,-3.459718 -3.587789,-3.479758 L 8.9965714,85.247633 c -2.377694,0.01363 -3.4723043,1.444726 -3.2947557,3.547949 0.021008,12.870228 -0.08944,27.305578 -0.015319,40.170848 0.040775,2.3965 0.9124817,4.02953 3.1917957,3.99385 21.3488056,0.12557 43.8324806,-0.0717 65.1817576,-0.0582 2.946712,0.007 3.49859,-1.26513 3.452388,-3.33742 0.0069,-2.27705 -0.0015,-6.14211 0.0053,-8.41915"
                style="display:inline;fill:#8ba0ff;fill-rule:evenodd;stroke:none;stroke-width:0.48840621">
            </path>
            <path id="node3" transform-origin="160 40" transform="translate(-55, 25) skewX(-15) rotate(15) scale(1 0.6)" d="m 131.98282,17.743757 c -4.40538,1.315696 -2.42344,6.6797 -2.85885,10.048455 -0.0789,16.980576 0.0873,33.96669 -0.18905,50.94347 5.3e-4,4.072046 -0.91967,8.317714 0.27717,12.277656 1.81431,3.627123 6.27855,2.159331 9.48794,2.479535 19.53309,0.03311 39.06621,0.01455 58.59931,0.02074 4.4733,-1.024916 3.05871,-6.071637 3.2433,-9.376111 0.27388,-17.350933 -0.11397,-34.700471 -0.0809,-52.051773 -0.004,-3.954917 0.16386,-7.920526 -0.0669,-11.870165 -1.26259,-3.619024 -5.61414,-2.235315 -8.51446,-2.534759 -19.96562,-0.02134 -39.9324,-0.05805 -59.89758,0.06293 z"
                style="display:inline;fill:#ffd92c;fill-rule:evenodd;stroke:none;stroke-width:0.48840621">
            </path>
            <path id="node1" transform-origin="30 30" transform="translate(62, 30) skewX(-15) rotate(15)" d="M 9.5326516,7.5145037 C 7.1069517,7.5100481 5.6641867,8.7893045 5.6778022,11.678068 5.726893,24.41936 5.5327232,38.58761 5.7782909,51.325861 c 0.078965,2.035288 2.0194931,3.87742 4.2157676,3.803225 l 62.6115495,-0.08721 c 2.82537,0.09824 5.001496,-2.016816 4.891491,-5.057573 0.07929,-13.182064 0.203806,-25.732216 -0.07019,-38.91256 C 77.36059,8.7614214 76.086437,7.3835461 72.927385,7.4272915 51.497888,7.4358904 30.961729,7.4051194 9.5326516,7.5145037 Z"
                style="display:inline;fill:#8ba0ff;fill-rule:evenodd;stroke:none;stroke-width:0.48840621">
            </path>
        </g>
    </svg>